<?xml version="1.0" encoding="utf-8"?>
<!-- Generator: Adobe Illustrator 26.0.2, SVG Export Plug-In . SVG Version: 6.00 Build 0)  -->
<svg version="1.1"
	 id="svg132" xmlns:cc="http://creativecommons.org/ns#" xmlns:dc="http://purl.org/dc/elements/1.1/" xmlns:rdf="http://www.w3.org/1999/02/22-rdf-syntax-ns#" xmlns:svg="http://www.w3.org/2000/svg"
	 xmlns="http://www.w3.org/2000/svg" xmlns:xlink="http://www.w3.org/1999/xlink" x="0px" y="0px" viewBox="0 0 670.2 374.5"
	 style="enable-background:new 0 0 670.2 374.5;" xml:space="preserve">
<style type="text/css">
	.st0{fill:none;stroke:#FFFFFF;stroke-width:3.3336;stroke-linecap:round;stroke-linejoin:round;stroke-miterlimit:10;}
	
		.st1{fill-rule:evenodd;clip-rule:evenodd;fill:#FFFFFF;stroke:#FFFFFF;stroke-width:1.1112;stroke-linecap:round;stroke-linejoin:round;stroke-miterlimit:10;}
</style>
<g id="g582">
	<path id="path65" class="st0" d="M138.6,178.3l-57.7,33.3"/>
	<path id="path67" class="st0" d="M138.6,178.3v-66.7"/>
	<path id="path69" class="st0" d="M80.9,211.7l-57.7-33.3"/>
	<path id="path71" class="st0" d="M138.6,111.7L80.9,78.3"/>
	<path id="path73" class="st0" d="M125.2,118l-43-24.9"/>
	<path id="path75" class="st0" d="M23.2,178.3v-66.7"/>
	<path id="path77" class="st0" d="M80.9,78.3l-57.7,33.3"/>
	<path id="path79" class="st0" d="M80.9,211.7v66.7"/>
	<path id="path81" class="st0" d="M80.9,278.3l-57.7,33.4"/>
	<path id="path83" class="st0" d="M80.9,278.3l57.7,33.4"/>
	<path id="path85" class="st0" d="M94.4,272l50.4,29.1"/>
	<path id="path87" class="st1" d="M80.9,211.7l-39,17.3l2.2,3.9l2.2,3.9L80.9,211.7z"/>
	<path id="path89" class="st0" d="M171.8,163.6l-3.8-6.6"/>
	<path id="path91" class="st0" d="M160.6,168.6l-2.5-4.4"/>
	<path id="path93" class="st0" d="M149.4,173.6l-1.2-2.1"/>
	<path id="path95" class="st0" d="M254.1,245l-115.5-66.7"/>
	<path id="path97" class="st0" d="M254.1,245l57.7-33.3"/>
	<path id="path99" class="st0" d="M254.1,245v66.7"/>
	<path id="path101" class="st0" d="M266.3,253.5v49.7"/>
	<path id="path103" class="st0" d="M311.8,211.7l57.7,33.3"/>
	<path id="path105" class="st0" d="M313.1,226.5l43,24.8"/>
	<path id="path107" class="st0" d="M254.1,311.7l57.7,33.3"/>
	<path id="path109" class="st0" d="M369.6,245v66.7"/>
	<path id="path111" class="st0" d="M311.8,345l57.7-33.3"/>
	<path id="path113" class="st0" d="M313.1,330.2l43-24.9"/>
	<path id="path115" class="st0" d="M254.1,311.7l-34.4,19.9"/>
	<path id="path117" class="st0" d="M311.8,211.7v-38.8"/>
	<path id="path119" class="st0" d="M369.6,311.7l57.9,33.3"/>
	<path id="path121" class="st0" d="M427.4,345l57.8-33.3"/>
	<path id="path123" class="st0" d="M485.2,311.7L543,345"/>
	<path id="path125" class="st0" d="M543,345l57.8-33.3"/>
	<path id="path127" class="st0" d="M600.8,311.7l57.8,33.3"/>
	<path id="path129" class="st0" d="M80.9,78.3V11.7"/>
</g>
</svg>
