<?xml version="1.0" encoding="UTF-8"?>
<svg data-name="Camada 1" viewBox="0 0 726.06 323.88" xmlns="http://www.w3.org/2000/svg">
<defs>
<style>.cls-1{fill:#fff8d2;}</style>
</defs>
<path class="cls-1" transform="translate(-2105.4 -200.25)" d="M2224.91,500.88h8.76a6.74,6.74,0,0,1,4.74,1.5,5.6,5.6,0,0,1,1.62,4.32,5.84,5.84,0,0,1-.62,2.83,5.17,5.17,0,0,1-1.87,1.91,7.07,7.07,0,0,1,2.14.73,4.67,4.67,0,0,1,1.44,1.22,4.55,4.55,0,0,1,.8,1.62,7.43,7.43,0,0,1,.24,1.92,6.79,6.79,0,0,1-.56,2.82,5.73,5.73,0,0,1-1.56,2.07,6.65,6.65,0,0,1-2.44,1.26,11.57,11.57,0,0,1-3.24.42h-9.45Zm5.88,8.88h1.08q2.76,0,2.76-2.19t-2.76-2.19h-1.08Zm0,9.18h1.29a6.56,6.56,0,0,0,3.18-.57,2.22,2.22,0,0,0,0-3.66,6.56,6.56,0,0,0-3.18-.57h-1.29Z"/>
<path class="cls-1" transform="translate(-2105.4 -200.25)" d="M2270.5,523.5h-7.32l-5.61-8.7v8.7h-5.88V500.88h9.14a9,9,0,0,1,3.31.55,6.25,6.25,0,0,1,3.7,3.74,7.74,7.74,0,0,1,.47,2.7,6.62,6.62,0,0,1-1.25,4.18,6.26,6.26,0,0,1-3.67,2.18ZM2257.57,511h1.11a4.31,4.31,0,0,0,2.67-.72,2.77,2.77,0,0,0,0-4.14,4.31,4.31,0,0,0-2.67-.72h-1.11Z"/>
<path class="cls-1" transform="translate(-2105.4 -200.25)" d="m2293.9 519.57h-8.4l-1.35 3.93h-6.27l8.61-22.62h6.42l8.61 22.62h-6.27zm-1.56-4.47-2.64-7.53l-2.67 7.53z"/>
<path class="cls-1" transform="translate(-2105.4 -200.25)" d="M2318.89,518.52h9.48v5H2309l10.71-17.64h-8.91v-5h18.72Z"/>
<path class="cls-1" transform="translate(-2105.4 -200.25)" d="m2343.8 500.88v22.62h-5.85v-22.62z"/>
<path class="cls-1" transform="translate(-2105.4 -200.25)" d="m2360.5 500.88v17.64h7.05v5h-12.93v-22.64z"/>
<path class="cls-1" transform="translate(-2105.4 -200.25)" d="m2382.1 500.88v22.62h-5.87v-22.62z"/>
<path class="cls-1" transform="translate(-2105.4 -200.25)" d="m2406.6 519.57h-8.4l-1.35 3.93h-6.27l8.61-22.62h6.42l8.61 22.62h-6.22zm-1.6-4.47l-2.64-7.53-2.64 7.53z"/>
<path class="cls-1" transform="translate(-2105.4 -200.25)" d="m2422.7 523.5v-22.62h5.88l10.86 13.83v-13.83h5.85v22.62h-5.85l-10.86-13.83v13.83z"/>
<path class="cls-1" transform="translate(-2105.4 -200.25)" d="M2488.49,508.44a6.28,6.28,0,0,0-5-2.49,6.19,6.19,0,0,0-2.45.48,5.92,5.92,0,0,0-1.93,1.3,6,6,0,0,0-1.28,2,6.45,6.45,0,0,0-.46,2.46,6.53,6.53,0,0,0,.46,2.49A6,6,0,0,0,2481,518a6,6,0,0,0,2.4.48,6.81,6.81,0,0,0,5.07-2.4v7l-.6.21a17.3,17.3,0,0,1-2.52.7,12.22,12.22,0,0,1-2.31.23,11.84,11.84,0,0,1-8.27-3.38,12.37,12.37,0,0,1-2.62-3.81,12.25,12.25,0,0,1,0-9.6,11.94,11.94,0,0,1,10.94-7.09,12.36,12.36,0,0,1,2.65.28,16.19,16.19,0,0,1,2.75.89Z"/>
<path class="cls-1" transform="translate(-2105.4 -200.25)" d="M2498.7,500.88h8.76a6.74,6.74,0,0,1,4.74,1.5,5.6,5.6,0,0,1,1.62,4.32,5.73,5.73,0,0,1-.62,2.83,5.17,5.17,0,0,1-1.87,1.91,7.07,7.07,0,0,1,2.14.73,4.67,4.67,0,0,1,1.44,1.22,4.39,4.39,0,0,1,.8,1.62,7.43,7.43,0,0,1,.24,1.92,7,7,0,0,1-.55,2.82,5.87,5.87,0,0,1-1.57,2.07,6.65,6.65,0,0,1-2.44,1.26,11.57,11.57,0,0,1-3.24.42h-9.45Zm5.88,8.88h1.08q2.76,0,2.76-2.19t-2.76-2.19h-1.08Zm0,9.18h1.29a6.56,6.56,0,0,0,3.18-.57,2.22,2.22,0,0,0,0-3.66,6.56,6.56,0,0,0-3.18-.57h-1.29Z"/>
<path class="cls-1" transform="translate(-2105.4 -200.25)" d="M2525.48,500.88h8.7a10.24,10.24,0,0,1,4.33.93,11.8,11.8,0,0,1,3.54,2.47,11.49,11.49,0,0,1,2.39,3.6,11.07,11.07,0,0,1,0,8.58,11.47,11.47,0,0,1-2.37,3.62,11.68,11.68,0,0,1-3.54,2.49,10.31,10.31,0,0,1-4.36.93h-8.7Zm5.88,17.64h1.35a7.3,7.3,0,0,0,2.73-.48,5.81,5.81,0,0,0,2-1.32,5.67,5.67,0,0,0,1.26-2,7.11,7.11,0,0,0,.44-2.53,7,7,0,0,0-.45-2.52,5.69,5.69,0,0,0-3.3-3.33,7.22,7.22,0,0,0-2.7-.48h-1.35Z"/>
<path class="cls-1" transform="translate(-2105.4 -200.25)" d="M2587.55,508.44a6.28,6.28,0,0,0-5-2.49,6.19,6.19,0,0,0-2.45.48,5.92,5.92,0,0,0-1.93,1.3,6,6,0,0,0-1.28,2,6.45,6.45,0,0,0-.46,2.46,6.53,6.53,0,0,0,.46,2.49,6,6,0,0,0,3.23,3.3,6,6,0,0,0,2.4.48,6.81,6.81,0,0,0,5.07-2.4v7l-.6.21a17.3,17.3,0,0,1-2.52.7,12.22,12.22,0,0,1-2.31.23,11.84,11.84,0,0,1-8.27-3.38,12.37,12.37,0,0,1-2.62-3.81,12.25,12.25,0,0,1,0-9.6,11.94,11.94,0,0,1,10.94-7.09,12.36,12.36,0,0,1,2.65.28,16.19,16.19,0,0,1,2.75.89Z"/>
<path class="cls-1" transform="translate(-2105.4 -200.25)" d="M2596.24,512.19a11.84,11.84,0,0,1,.93-4.7,11.65,11.65,0,0,1,6.52-6.33,14.47,14.47,0,0,1,10.1,0,11.91,11.91,0,0,1,4,2.54,11.59,11.59,0,0,1,2.6,3.79,12.32,12.32,0,0,1,0,9.39,11.64,11.64,0,0,1-2.6,3.8,11.89,11.89,0,0,1-4,2.53,14.32,14.32,0,0,1-10.1,0,11.7,11.7,0,0,1-7.45-11Zm6.15,0a6,6,0,0,0,.51,2.49,6.3,6.3,0,0,0,1.38,2,6.2,6.2,0,0,0,2,1.3,6.59,6.59,0,0,0,4.89,0,6.4,6.4,0,0,0,2-1.3,6.19,6.19,0,0,0,1.4-2,6.33,6.33,0,0,0,0-5,6.19,6.19,0,0,0-1.4-2,6.42,6.42,0,0,0-4.48-1.77,6.51,6.51,0,0,0-2.45.46,6.23,6.23,0,0,0-2,1.31,6.3,6.3,0,0,0-1.38,2A6,6,0,0,0,2602.39,512.19Z"/>
<path class="cls-1" transform="translate(-2105.4 -200.25)" d="m2643.9 505.86h-7.08v3.78h6.45v5h-6.45v8.88h-5.86v-22.64h13z"/>
<path class="cls-1" transform="translate(-2105.4 -200.25)" d="m2666.4 505.86h-7.08v3.78h6.45v5h-6.45v8.88h-5.88v-22.64h13z"/>
<path class="cls-1" transform="translate(-2105.4 -200.25)" d="m2688.7 505.86h-7v3.78h6.6v5h-6.6v3.9h7v5h-12.87v-22.66h12.87z"/>
<path class="cls-1" transform="translate(-2105.4 -200.25)" d="M2712,505.86h-7v3.78h6.59v5H2705v3.9h7v5h-12.87V500.88H2712Z"/>
<polygon class="cls-1" points="340.87 3.74 303.42 3.74 303.42 146.07 340.87 146.07 340.87 146.06 412.05 146.06 412.05 131.06 340.87 131.06"/>
<path class="cls-1" transform="translate(-2105.4 -200.25)" d="M2337.27,204h-38l-47.75,142.32h37.84l8.83-26.21h49l8.83,26.21h37.84L2346.09,204Zm-36.56,108.62,22-65.28,22,65.28Z"/>
<path class="cls-1" transform="translate(-2105.4 -200.25)" d="M2217,282.75a37.5,37.5,0,1,1,0-15h37.84a75,75,0,1,0,0,15Z"/>
<polygon class="cls-1" points="534.5 3.75 534.44 3.75 498.13 111.94 461.83 3.75 461.78 3.75 438.82 3.75 423.95 3.75 423.95 146.07 461.78 146.07 461.78 71.96 486.71 146 486.69 146.07 486.73 146.07 509.54 146.07 509.58 146.07 509.56 146 534.5 71.94 534.5 146.07 572.33 146.07 572.33 3.75 557.45 3.75"/>
<path class="cls-1" transform="translate(-2105.4 -200.25)" d="m2783.7 204h-46.82l-47.75 142.32h37.83l8.82-26.21h49l8.83 26.21h37.83zm-45.38 108.62 22-65.28 22 65.28z"/>
<path class="cls-1" transform="translate(-2105.4 -200.25)" d="M2572.22,443.93h-.09a18.73,18.73,0,0,1-18.26-15h18.35v-7.49h-18.35a18.73,18.73,0,0,1,18.26-15h.09a18.66,18.66,0,0,1,13.19,5.45l13.25-13.25a37.35,37.35,0,0,0-26.44-10.92h-.09a37.45,37.45,0,0,0,0,74.9h.09a37.35,37.35,0,0,0,26.44-10.92l-13.25-13.25A18.62,18.62,0,0,1,2572.22,443.93Z"/>
<path class="cls-1" transform="translate(-2105.4 -200.25)" d="M2636.11,443.93H2636a18.73,18.73,0,0,1-18.26-15h18.35v-7.49h-18.35a18.73,18.73,0,0,1,18.26-15h.09a18.66,18.66,0,0,1,13.19,5.45l13.25-13.25a37.35,37.35,0,0,0-26.44-10.92H2636a37.45,37.45,0,0,0,0,74.9h.09a37.35,37.35,0,0,0,26.44-10.92l-13.25-13.25A18.62,18.62,0,0,1,2636.11,443.93Z"/>
<polygon class="cls-1" points="337.54 189.37 328.18 189.37 328.18 260.53 347.09 260.53 347.09 232.44 363.75 232.44 363.75 217.46 347.09 217.46 347.09 208.29 373.12 208.29 373.12 189.37 347.09 189.37"/>
<polygon class="cls-1" points="390 189.37 380.63 189.37 380.63 260.53 399.55 260.53 399.55 232.44 416.21 232.44 416.21 217.46 399.55 217.46 399.55 208.29 425.58 208.29 425.58 189.37 399.55 189.37"/>
<path class="cls-1" transform="translate(-2105.4 -200.25)" d="m2330.2 429a18.75 18.75 0 1 1 0 -7.5h18.92a37.5 37.5 0 1 0 0 7.5z"/>
<path class="cls-1" transform="translate(-2105.4 -200.25)" d="M2427.59,421.5h.19a37.48,37.48,0,0,0-37.27-33.75h-.18a37.48,37.48,0,0,0-37.27,33.75h.19c-.12,1.23-.19,2.48-.19,3.75s.07,2.51.19,3.75h-.19a37.48,37.48,0,0,0,37.27,33.75h.18A37.48,37.48,0,0,0,2427.78,429h-.19a37.1,37.1,0,0,0,0-7.5Zm-55.8,3.75A18.63,18.63,0,1,1,2390.42,444,18.73,18.73,0,0,1,2371.79,425.25Z"/>
</svg>
